<svg xmlns="http://www.w3.org/2000/svg" viewBox="0 0 80 80" width="80" height="80">

	<defs>
		<radialGradient id="d2" r="1.3">
			<stop offset="0%" stop-color="#FE315D" />
			<stop offset="4.023%" stop-color="#F63462" />
			<stop offset="10.37%" stop-color="#DF3A71" />
			<stop offset="16.67%" stop-color="#C24383" />
			<stop offset="29.12%" stop-color="#AD4A91" />
			<stop offset="54.98%" stop-color="#755BB4" />
			<stop offset="91.75%" stop-color="#1D76ED" />
			<stop offset="100%" stop-color="#087CFA" />
		</radialGradient>
		<radialGradient id="d21" cx="0.5" cy="79.5" r="1.3" gradientUnits="userSpaceOnUse"
		                gradientTransform="matrix(71.92, 0, 0, -62.28, 4.04, 4991.2599)">
			<stop offset="0%" stop-color="#01cea2" />
			<stop offset="4.023%" stop-color="#09CB9D" />
			<stop offset="10.37%" stop-color="#20C58E" />
			<stop offset="16.67%" stop-color="#3DBC7C" />
			<stop offset="29.12%" stop-color="#52B56E" />
			<stop offset="54.98%" stop-color="#8AA44B" />
			<stop offset="91.75%" stop-color="#E28912" />
			<stop offset="100%" stop-color="#F78305" />
		</radialGradient>

		<clipPath id="cut-off-center">
			<circle cx="40" cy="40" r="20" />
		</clipPath>
	</defs>

	<path id="base" fill="url(#d21)"
	      d="M75.96 40L57.98 71.14L22.02 71.14L4.04 40L22.02 8.86L57.98 8.86L75.96 40Z
			M35.83 37.92L44.17 42.08L35.83 46.25L35.83 37.92ZM31.67 35.35L31.67 52.99L48.33 44.65L48.33 27.01L31.67 35.35ZM48.89 55.33C46.17 56.92 43.21 57.71 40 57.71C36.79 57.71 33.83 56.92 31.11 55.33C28.4 53.75 26.25 51.6 24.67 48.89C23.08 46.17 22.29 43.21 22.29 40C22.29 36.79 23.08 33.83 24.67 31.11C26.25 28.4 28.4 26.25 31.11 24.67C33.83 23.08 36.79 22.29 40 22.29C43.21 22.29 46.17 23.08 48.89 24.67C51.6 26.25 53.75 28.4 55.33 31.11C56.92 33.83 57.71 36.79 57.71 40C57.71 43.21 56.92 46.17 55.33 48.89C53.75 51.6 51.6 53.75 48.89 55.33ZM52.55 18.35C48.72 16.12 44.54 15 40 15C35.46 15 31.28 16.12 27.45 18.35C23.62 20.59 20.59 23.62 18.35 27.45C16.12 31.28 15 35.46 15 40C15 44.54 16.12 48.72 18.35 52.55C20.59 56.38 23.62 59.41 27.45 61.65C31.28 63.88 35.46 65 40 65C44.54 65 48.72 63.88 52.55 61.65C56.38 59.41 59.41 56.38 61.65 52.55C63.88 48.72 65 44.54 65 40C65 35.46 63.88 31.28 61.65 27.45C59.41 23.62 56.38 20.59 52.55 18.35Z
		"
	/>

	<path id="center" fill="#E79106" clip-path="url(#cut-off-center)"
	      d="M75.96 40L57.98 71.14L22.02 71.14L4.04 40L22.02 8.86L57.98 8.86L75.96 40Z
			M35.83 37.92L44.17 42.08L35.83 46.25L35.83 37.92ZM31.67 35.35L31.67 52.99L48.33 44.65L48.33 27.01L31.67 35.35ZM48.89 55.33C46.17 56.92 43.21 57.71 40 57.71C36.79 57.71 33.83 56.92 31.11 55.33C28.4 53.75 26.25 51.6 24.67 48.89C23.08 46.17 22.29 43.21 22.29 40C22.29 36.79 23.08 33.83 24.67 31.11C26.25 28.4 28.4 26.25 31.11 24.67C33.83 23.08 36.79 22.29 40 22.29C43.21 22.29 46.17 23.08 48.89 24.67C51.6 26.25 53.75 28.4 55.33 31.11C56.92 33.83 57.71 36.79 57.71 40C57.71 43.21 56.92 46.17 55.33 48.89C53.75 51.6 51.6 53.75 48.89 55.33ZM52.55 18.35C48.72 16.12 44.54 15 40 15C35.46 15 31.28 16.12 27.45 18.35C23.62 20.59 20.59 23.62 18.35 27.45C16.12 31.28 15 35.46 15 40C15 44.54 16.12 48.72 18.35 52.55C20.59 56.38 23.62 59.41 27.45 61.65C31.28 63.88 35.46 65 40 65C44.54 65 48.72 63.88 52.55 61.65C56.38 59.41 59.41 56.38 61.65 52.55C63.88 48.72 65 44.54 65 40C65 35.46 63.88 31.28 61.65 27.45C59.41 23.62 56.38 20.59 52.55 18.35Z
		"
	/>

</svg>
