<svg viewBox="0 0 80 80" width="80" height="80" xmlns="http://www.w3.org/2000/svg">

	<defs>
		<linearGradient id="b" x1="27.55%" x2="82.223%" y1="34.514%" y2="77.605%">
			<stop offset="0%" stop-color="#F97A12" />
			<stop offset="7.18%" stop-color="#CB7A3E" />
			<stop offset="15.41%" stop-color="#9E7B6A" />
			<stop offset="24.2%" stop-color="#757B91" />
			<stop offset="33.44%" stop-color="#537BB1" />
			<stop offset="43.24%" stop-color="#387CCC" />
			<stop offset="53.81%" stop-color="#237CE0" />
			<stop offset="65.52%" stop-color="#147CEF" />
			<stop offset="79.25%" stop-color="#0B7CF7" />
			<stop offset="100%" stop-color="#087CFA" />
		</linearGradient>
		<linearGradient id="d" x1="25.331%" x2="93.854%" y1="24.119%" y2="132.621%">
			<stop offset="0%" stop-color="#FE315D" />
			<stop offset="4.023%" stop-color="#F63462" />
			<stop offset="10.37%" stop-color="#DF3A71" />
			<stop offset="16.67%" stop-color="#C24383" />
			<stop offset="29.12%" stop-color="#AD4A91" />
			<stop offset="54.98%" stop-color="#755BB4" />
			<stop offset="91.75%" stop-color="#1D76ED" />
			<stop offset="100%" stop-color="#087CFA" />
		</linearGradient>

		<clipPath id="cut-off-center">
			<circle cx="40" cy="40" r="24" />
		</clipPath>
	</defs>

	<path id="base" fill="#186EF9"
	      d="M75.02 36.48C75.33 37.01 75.57 37.58 75.73 38.18C75.88 38.77 75.97 39.39 75.97 40C75.97 40.61 75.88 41.23 75.73 41.82C75.57 42.42 75.33 42.99 75.02 43.52L60.57 68.56C60.26 69.09 59.88 69.58 59.45 70.01C59.01 70.45 58.52 70.82 57.99 71.13C57.46 71.44 56.89 71.68 56.29 71.83C55.7 71.99 55.09 72.07 54.47 72.07L25.56 72.07C24.95 72.07 24.33 71.99 23.74 71.83C23.15 71.68 22.58 71.44 22.04 71.13C21.51 70.82 21.02 70.45 20.59 70.01C20.15 69.58 19.77 69.09 19.47 68.56L5.01 43.52C4.7 42.99 4.47 42.42 4.31 41.82C4.15 41.23 4.07 40.61 4.07 40C4.07 39.39 4.15 38.77 4.31 38.18C4.47 37.58 4.7 37.01 5.01 36.48L19.47 11.44C19.77 10.91 20.15 10.42 20.59 9.99C21.02 9.55 21.51 9.18 22.04 8.87C22.58 8.56 23.15 8.32 23.74 8.17C24.33 8.01 24.95 7.93 25.56 7.93L54.47 7.93C55.09 7.93 55.7 8.01 56.29 8.17C56.89 8.32 57.46 8.56 57.99 8.87C58.52 9.18 59.01 9.55 59.45 9.99C59.88 10.42 60.26 10.91 60.57 11.44L75.02 36.48Z
			M36.67 38.33L43.33 41.67L36.67 45L36.67 38.33ZM33.33 36.28L33.33 50.39L46.67 43.72L46.67 29.61L33.33 36.28ZM47.11 52.27C44.94 53.53 42.57 54.17 40 54.17C37.43 54.17 35.06 53.53 32.89 52.27C30.72 51 29 49.28 27.73 47.11C26.47 44.94 25.83 42.57 25.83 40C25.83 37.43 26.47 35.06 27.73 32.89C29 30.72 30.72 29 32.89 27.73C35.06 26.47 37.43 25.83 40 25.83C42.57 25.83 44.94 26.47 47.11 27.73C49.28 29 51 30.72 52.27 32.89C53.53 35.06 54.17 37.43 54.17 40C54.17 42.57 53.53 44.94 52.27 47.11C51 49.28 49.28 51 47.11 52.27ZM50.04 22.68C46.97 20.89 43.63 20 40 20C36.37 20 33.02 20.89 29.96 22.68C26.9 24.47 24.47 26.9 22.68 29.96C20.89 33.03 20 36.37 20 40C20 43.63 20.89 46.98 22.68 50.04C24.47 53.1 26.9 55.53 29.96 57.32C33.02 59.11 36.37 60 40 60C43.63 60 46.97 59.11 50.04 57.32C53.1 55.53 55.53 53.1 57.32 50.04C59.11 46.98 60 43.63 60 40C60 36.37 59.11 33.03 57.32 29.96C55.53 26.9 53.1 24.47 50.04 22.68Z"
	/>
	<!-- 14-20.? -->
	<circle id="bg" cx="40" cy="40" r="21" fill="url(#d)" />
	<path id="center" fill="url(#b)" opacity="1" clip-path="url(#cut-off-center)"
	      d="M75.02 36.48C75.33 37.01 75.57 37.58 75.73 38.18C75.88 38.77 75.97 39.39 75.97 40C75.97 40.61 75.88 41.23 75.73 41.82C75.57 42.42 75.33 42.99 75.02 43.52L60.57 68.56C60.26 69.09 59.88 69.58 59.45 70.01C59.01 70.45 58.52 70.82 57.99 71.13C57.46 71.44 56.89 71.68 56.29 71.83C55.7 71.99 55.09 72.07 54.47 72.07L25.56 72.07C24.95 72.07 24.33 71.99 23.74 71.83C23.15 71.68 22.58 71.44 22.04 71.13C21.51 70.82 21.02 70.45 20.59 70.01C20.15 69.58 19.77 69.09 19.47 68.56L5.01 43.52C4.7 42.99 4.47 42.42 4.31 41.82C4.15 41.23 4.07 40.61 4.07 40C4.07 39.39 4.15 38.77 4.31 38.18C4.47 37.58 4.7 37.01 5.01 36.48L19.47 11.44C19.77 10.91 20.15 10.42 20.59 9.99C21.02 9.55 21.51 9.18 22.04 8.87C22.58 8.56 23.15 8.32 23.74 8.17C24.33 8.01 24.95 7.93 25.56 7.93L54.47 7.93C55.09 7.93 55.7 8.01 56.29 8.17C56.89 8.32 57.46 8.56 57.99 8.87C58.52 9.18 59.01 9.55 59.45 9.99C59.88 10.42 60.26 10.91 60.57 11.44L75.02 36.48Z
			M36.67 38.33L43.33 41.67L36.67 45L36.67 38.33ZM33.33 36.28L33.33 50.39L46.67 43.72L46.67 29.61L33.33 36.28ZM47.11 52.27C44.94 53.53 42.57 54.17 40 54.17C37.43 54.17 35.06 53.53 32.89 52.27C30.72 51 29 49.28 27.73 47.11C26.47 44.94 25.83 42.57 25.83 40C25.83 37.43 26.47 35.06 27.73 32.89C29 30.72 30.72 29 32.89 27.73C35.06 26.47 37.43 25.83 40 25.83C42.57 25.83 44.94 26.47 47.11 27.73C49.28 29 51 30.72 52.27 32.89C53.53 35.06 54.17 37.43 54.17 40C54.17 42.57 53.53 44.94 52.27 47.11C51 49.28 49.28 51 47.11 52.27ZM50.04 22.68C46.97 20.89 43.63 20 40 20C36.37 20 33.02 20.89 29.96 22.68C26.9 24.47 24.47 26.9 22.68 29.96C20.89 33.03 20 36.37 20 40C20 43.63 20.89 46.98 22.68 50.04C24.47 53.1 26.9 55.53 29.96 57.32C33.02 59.11 36.37 60 40 60C43.63 60 46.97 59.11 50.04 57.32C53.1 55.53 55.53 53.1 57.32 50.04C59.11 46.98 60 43.63 60 40C60 36.37 59.11 33.03 57.32 29.96C55.53 26.9 53.1 24.47 50.04 22.68Z"
	/>

	<!--5ED7BC-->
	<!--222222-->
	<!--F6B340-->
	<!--B79E72-->
	<!--3CE4D6-->
	<!--1B59A1-->
	<!--0069F6-->
</svg>
