<svg xmlns="http://www.w3.org/2000/svg" viewBox="0 0 80 80" width="16" height="16">
	<!-- 22:24 -->
	<defs>
		<radialGradient id="grd1" gradientUnits="userSpaceOnUse" cx="3.141" cy="8.082" r="95.833">
			<stop offset="0" stop-color="#fe315d" />
			<stop offset="4.023" stop-color="#f63462" />
			<stop offset="10.37" stop-color="#df3a71" />
			<stop offset="16.67" stop-color="#c24383" />
			<stop offset="29.12" stop-color="#ad4a91" />
			<stop offset="54.98" stop-color="#755bb4" />
			<stop offset="91.75" stop-color="#1d76ed" />
			<stop offset="100" stop-color="#087cfa" />
		</radialGradient>
		<clipPath clipPathUnits="userSpaceOnUse" id="cp1">
			<path d="M40 60.5C28.66 60.5 19.5 51.34 19.5 40C19.5 28.66 28.66 19.5 40 19.5C51.34 19.5 60.5 28.66 60.5 40C60.5 51.34 51.34 60.5 40 60.5Z" />
		</clipPath>
	</defs>
	<style>
		tspan { white-space:pre }
		.shp0 { fill: url(#grd1) }
		.shp1 { fill: #186ef9 }
	</style>
	<path id="base" fill-rule="evenodd" class="shp0"
	      d="M76.86 40L58.43 71.92L21.57 71.92L3.14 40L21.57 8.08L58.43 8.08L76.86 40ZM52.86 17.81C48.94 15.52 44.65 14.37 40 14.37C35.35 14.37 31.06 15.52 27.14 17.81C23.21 20.1 20.1 23.21 17.81 27.14C15.52 31.06 14.37 35.35 14.37 40C14.37 44.65 15.52 48.94 17.81 52.86C20.1 56.79 23.21 59.9 27.14 62.19C31.06 64.48 35.35 65.63 40 65.63C44.65 65.63 48.94 64.48 52.86 62.19C56.79 59.9 59.9 56.79 62.19 52.86C64.48 48.94 65.63 44.65 65.63 40C65.63 35.35 64.48 31.06 62.19 27.14C59.9 23.21 56.79 20.1 52.86 17.81ZM49.11 55.71C46.32 57.34 43.29 58.15 40 58.15C36.71 58.15 33.68 57.34 30.89 55.71C28.11 54.09 25.91 51.89 24.29 49.11C22.66 46.32 21.85 43.29 21.85 40C21.85 36.71 22.66 33.68 24.29 30.89C25.91 28.11 28.11 25.91 30.89 24.29C33.68 22.66 36.71 21.85 40 21.85C43.29 21.85 46.32 22.66 49.11 24.29C51.89 25.91 54.09 28.11 55.71 30.89C57.34 33.68 58.15 36.71 58.15 40C58.15 43.29 57.34 46.32 55.71 49.11C54.09 51.89 51.89 54.09 49.11 55.71ZM31.46 35.23L31.46 53.31L48.54 44.77L48.54 26.69L31.46 35.23ZM35.73 37.87L44.27 42.13L35.73 46.41L35.73 37.87Z" />
	<g id="Clip-Path: center" clip-path="url(#cp1)">
		<path id="center" fill-rule="evenodd" class="shp1"
		      d="M76.86 40L58.43 71.92L21.57 71.92L3.14 40L21.57 8.08L58.43 8.08L76.86 40ZM52.86 17.81C48.94 15.52 44.65 14.37 40 14.37C35.35 14.37 31.06 15.52 27.14 17.81C23.21 20.1 20.1 23.21 17.81 27.14C15.52 31.06 14.37 35.35 14.37 40C14.37 44.65 15.52 48.94 17.81 52.86C20.1 56.79 23.21 59.9 27.14 62.19C31.06 64.48 35.35 65.63 40 65.63C44.65 65.63 48.94 64.48 52.86 62.19C56.79 59.9 59.9 56.79 62.19 52.86C64.48 48.94 65.63 44.65 65.63 40C65.63 35.35 64.48 31.06 62.19 27.14C59.9 23.21 56.79 20.1 52.86 17.81ZM49.11 55.71C46.32 57.34 43.29 58.15 40 58.15C36.71 58.15 33.68 57.34 30.89 55.71C28.11 54.09 25.91 51.89 24.29 49.11C22.66 46.32 21.85 43.29 21.85 40C21.85 36.71 22.66 33.68 24.29 30.89C25.91 28.11 28.11 25.91 30.89 24.29C33.68 22.66 36.71 21.85 40 21.85C43.29 21.85 46.32 22.66 49.11 24.29C51.89 25.91 54.09 28.11 55.71 30.89C57.34 33.68 58.15 36.71 58.15 40C58.15 43.29 57.34 46.32 55.71 49.11C54.09 51.89 51.89 54.09 49.11 55.71ZM31.46 35.23L31.46 53.31L48.54 44.77L48.54 26.69L31.46 35.23ZM35.73 37.87L44.27 42.13L35.73 46.41L35.73 37.87Z" />
	</g>
</svg>
