<svg xmlns="http://www.w3.org/2000/svg" viewBox="20 20 360 360" width="320" height="300">

	<defs>
		<radialGradient id="d2" r="1.3">
			<stop offset="0%" stop-color="#FE315D" />
			<stop offset="4.023%" stop-color="#F63462" />
			<stop offset="10.37%" stop-color="#DF3A71" />
			<stop offset="16.67%" stop-color="#C24383" />
			<stop offset="29.12%" stop-color="#AD4A91" />
			<stop offset="54.98%" stop-color="#755BB4" />
			<stop offset="91.75%" stop-color="#1D76ED" />
			<stop offset="100%" stop-color="#087CFA" />
		</radialGradient>

		<clipPath id="cut-off-center">
			<circle cx="200" cy="200" r="100" />
		</clipPath>
	</defs>

	<path id="base" fill="url(#d2)"
	      d="M380 199.88L290 355.77L110 355.77L20 199.88L110 44L290 44L380 199.88Z
			M179.17 189.58L220.83 210.42L179.17 231.25L179.17 189.58ZM158.33 176.73L158.33 264.94L241.67 223.27L241.67 135.06L158.33 176.73ZM244.43 276.66C230.87 284.58 216.06 288.54 200 288.54C183.94 288.54 169.13 284.58 155.57 276.66C142 268.74 131.26 258 123.34 244.43C115.42 230.87 111.46 216.06 111.46 200C111.46 183.94 115.42 169.13 123.34 155.57C131.26 142 142 131.26 155.57 123.34C169.13 115.42 183.94 111.46 200 111.46C216.06 111.46 230.87 115.42 244.43 123.34C258 131.26 268.74 142 276.66 155.57C284.58 169.13 288.54 183.94 288.54 200C288.54 216.06 284.58 230.87 276.66 244.43C268.74 258 258 268.74 244.43 276.66ZM262.74 91.76C243.59 80.59 222.68 75 200 75C177.32 75 156.41 80.59 137.26 91.76C118.1 102.94 102.94 118.11 91.76 137.26C80.59 156.41 75 177.32 75 200C75 222.68 80.59 243.59 91.76 262.74C102.94 281.9 118.1 297.06 137.26 308.24C156.41 319.41 177.32 325 200 325C222.68 325 243.59 319.41 262.74 308.24C281.89 297.06 297.06 281.9 308.24 262.74C319.41 243.59 325 222.68 325 200C325 177.32 319.41 156.41 308.24 137.26C297.06 118.11 281.89 102.94 262.74 91.76Z
		"
	/>

	<path id="center" fill="#186EF9" clip-path="url(#cut-off-center)"
	      d="M380 199.88L290 355.77L110 355.77L20 199.88L110 44L290 44L380 199.88Z
			M179.17 189.58L220.83 210.42L179.17 231.25L179.17 189.58ZM158.33 176.73L158.33 264.94L241.67 223.27L241.67 135.06L158.33 176.73ZM244.43 276.66C230.87 284.58 216.06 288.54 200 288.54C183.94 288.54 169.13 284.58 155.57 276.66C142 268.74 131.26 258 123.34 244.43C115.42 230.87 111.46 216.06 111.46 200C111.46 183.94 115.42 169.13 123.34 155.57C131.26 142 142 131.26 155.57 123.34C169.13 115.42 183.94 111.46 200 111.46C216.06 111.46 230.87 115.42 244.43 123.34C258 131.26 268.74 142 276.66 155.57C284.58 169.13 288.54 183.94 288.54 200C288.54 216.06 284.58 230.87 276.66 244.43C268.74 258 258 268.74 244.43 276.66ZM262.74 91.76C243.59 80.59 222.68 75 200 75C177.32 75 156.41 80.59 137.26 91.76C118.1 102.94 102.94 118.11 91.76 137.26C80.59 156.41 75 177.32 75 200C75 222.68 80.59 243.59 91.76 262.74C102.94 281.9 118.1 297.06 137.26 308.24C156.41 319.41 177.32 325 200 325C222.68 325 243.59 319.41 262.74 308.24C281.89 297.06 297.06 281.9 308.24 262.74C319.41 243.59 325 222.68 325 200C325 177.32 319.41 156.41 308.24 137.26C297.06 118.11 281.89 102.94 262.74 91.76Z
		"
	/>

</svg>
