<svg xmlns="http://www.w3.org/2000/svg" viewBox="4 4 72 72" width="320" height="300">

	<defs>
		<radialGradient id="d2" r="1.3">
			<stop offset="0%" stop-color="#FE315D" />
			<stop offset="4.023%" stop-color="#F63462" />
			<stop offset="10.37%" stop-color="#DF3A71" />
			<stop offset="16.67%" stop-color="#C24383" />
			<stop offset="29.12%" stop-color="#AD4A91" />
			<stop offset="54.98%" stop-color="#755BB4" />
			<stop offset="91.75%" stop-color="#1D76ED" />
			<stop offset="100%" stop-color="#087CFA" />
		</radialGradient>

		<clipPath id="cut-off-center">
			<circle cx="40" cy="40" r="20" />
		</clipPath>
	</defs>

	<path id="base" fill="url(#d2)"
	      d="M75.96 40L57.98 71.14L22.02 71.14L4.04 40L22.02 8.86L57.98 8.86L75.96 40Z
			M35.83 37.92L44.17 42.08L35.83 46.25L35.83 37.92ZM31.67 35.35L31.67 52.99L48.33 44.65L48.33 27.01L31.67 35.35ZM48.89 55.33C46.17 56.92 43.21 57.71 40 57.71C36.79 57.71 33.83 56.92 31.11 55.33C28.4 53.75 26.25 51.6 24.67 48.89C23.08 46.17 22.29 43.21 22.29 40C22.29 36.79 23.08 33.83 24.67 31.11C26.25 28.4 28.4 26.25 31.11 24.67C33.83 23.08 36.79 22.29 40 22.29C43.21 22.29 46.17 23.08 48.89 24.67C51.6 26.25 53.75 28.4 55.33 31.11C56.92 33.83 57.71 36.79 57.71 40C57.71 43.21 56.92 46.17 55.33 48.89C53.75 51.6 51.6 53.75 48.89 55.33ZM52.55 18.35C48.72 16.12 44.54 15 40 15C35.46 15 31.28 16.12 27.45 18.35C23.62 20.59 20.59 23.62 18.35 27.45C16.12 31.28 15 35.46 15 40C15 44.54 16.12 48.72 18.35 52.55C20.59 56.38 23.62 59.41 27.45 61.65C31.28 63.88 35.46 65 40 65C44.54 65 48.72 63.88 52.55 61.65C56.38 59.41 59.41 56.38 61.65 52.55C63.88 48.72 65 44.54 65 40C65 35.46 63.88 31.28 61.65 27.45C59.41 23.62 56.38 20.59 52.55 18.35Z
		"
	/>

	<path id="center" fill="#186EF9" clip-path="url(#cut-off-center)"
	      d="M75.96 40L57.98 71.14L22.02 71.14L4.04 40L22.02 8.86L57.98 8.86L75.96 40Z
			M35.83 37.92L44.17 42.08L35.83 46.25L35.83 37.92ZM31.67 35.35L31.67 52.99L48.33 44.65L48.33 27.01L31.67 35.35ZM48.89 55.33C46.17 56.92 43.21 57.71 40 57.71C36.79 57.71 33.83 56.92 31.11 55.33C28.4 53.75 26.25 51.6 24.67 48.89C23.08 46.17 22.29 43.21 22.29 40C22.29 36.79 23.08 33.83 24.67 31.11C26.25 28.4 28.4 26.25 31.11 24.67C33.83 23.08 36.79 22.29 40 22.29C43.21 22.29 46.17 23.08 48.89 24.67C51.6 26.25 53.75 28.4 55.33 31.11C56.92 33.83 57.71 36.79 57.71 40C57.71 43.21 56.92 46.17 55.33 48.89C53.75 51.6 51.6 53.75 48.89 55.33ZM52.55 18.35C48.72 16.12 44.54 15 40 15C35.46 15 31.28 16.12 27.45 18.35C23.62 20.59 20.59 23.62 18.35 27.45C16.12 31.28 15 35.46 15 40C15 44.54 16.12 48.72 18.35 52.55C20.59 56.38 23.62 59.41 27.45 61.65C31.28 63.88 35.46 65 40 65C44.54 65 48.72 63.88 52.55 61.65C56.38 59.41 59.41 56.38 61.65 52.55C63.88 48.72 65 44.54 65 40C65 35.46 63.88 31.28 61.65 27.45C59.41 23.62 56.38 20.59 52.55 18.35Z
		"
	/>


	<!--
	<path id="Layer" fill="#186EF9"
	      d="M75.96 40L57.98 71.14L22.02 71.14L4.04 40L22.02 8.86L57.98 8.86L75.96 40Z
			M36.67 38.33L43.33 41.67L36.67 45L36.67 38.33ZM33.33 36.28L33.33 50.39L46.67 43.72L46.67 29.61L33.33 36.28ZM47.11 52.27C44.94 53.53 42.57 54.17 40 54.17C37.43 54.17 35.06 53.53 32.89 52.27C30.72 51 29 49.28 27.73 47.11C26.47 44.94 25.83 42.57 25.83 40C25.83 37.43 26.47 35.06 27.73 32.89C29 30.72 30.72 29 32.89 27.73C35.06 26.47 37.43 25.83 40 25.83C42.57 25.83 44.94 26.47 47.11 27.73C49.28 29 51 30.72 52.27 32.89C53.53 35.06 54.17 37.43 54.17 40C54.17 42.57 53.53 44.94 52.27 47.11C51 49.28 49.28 51 47.11 52.27ZM50.04 22.68C46.97 20.89 43.63 20 40 20C36.37 20 33.02 20.89 29.96 22.68C26.9 24.47 24.47 26.9 22.68 29.96C20.89 33.03 20 36.37 20 40C20 43.63 20.89 46.98 22.68 50.04C24.47 53.1 26.9 55.53 29.96 57.32C33.02 59.11 36.37 60 40 60C43.63 60 46.97 59.11 50.04 57.32C53.1 55.53 55.53 53.1 57.32 50.04C59.11 46.98 60 43.63 60 40C60 36.37 59.11 33.03 57.32 29.96C55.53 26.9 53.1 24.47 50.04 22.68Z
		"
	/>
	-->

	<!--
	<path id="Layer" fill="#186EF9"
	      d="M75.96 40L57.98 71.14L22.02 71.14L4.04 40L22.02 8.86L57.98 8.86L75.96 40Z
			M35.83 37.92L44.17 42.08L35.83 46.25L35.83 37.92ZM31.67 35.35L31.67 52.99L48.33 44.65L48.33 27.01L31.67 35.35ZM48.89 55.33C46.17 56.92 43.21 57.71 40 57.71C36.79 57.71 33.83 56.92 31.11 55.33C28.4 53.75 26.25 51.6 24.67 48.89C23.08 46.17 22.29 43.21 22.29 40C22.29 36.79 23.08 33.83 24.67 31.11C26.25 28.4 28.4 26.25 31.11 24.67C33.83 23.08 36.79 22.29 40 22.29C43.21 22.29 46.17 23.08 48.89 24.67C51.6 26.25 53.75 28.4 55.33 31.11C56.92 33.83 57.71 36.79 57.71 40C57.71 43.21 56.92 46.17 55.33 48.89C53.75 51.6 51.6 53.75 48.89 55.33ZM52.55 18.35C48.72 16.12 44.54 15 40 15C35.46 15 31.28 16.12 27.45 18.35C23.62 20.59 20.59 23.62 18.35 27.45C16.12 31.28 15 35.46 15 40C15 44.54 16.12 48.72 18.35 52.55C20.59 56.38 23.62 59.41 27.45 61.65C31.28 63.88 35.46 65 40 65C44.54 65 48.72 63.88 52.55 61.65C56.38 59.41 59.41 56.38 61.65 52.55C63.88 48.72 65 44.54 65 40C65 35.46 63.88 31.28 61.65 27.45C59.41 23.62 56.38 20.59 52.55 18.35Z
		"
	/>
	-->

</svg>
